<svg id="Layer_1" data-name="Layer 1" xmlns="http://www.w3.org/2000/svg" width="171.81mm" height="91.81mm" viewBox="0 0 487.01 260.26"><defs><style>.cls-1{fill:#1d1d1b;}</style></defs><path class="cls-1" d="M210.29,40.13v3H193.42V86.75H187V43.16H170.11v-3Z"/><path class="cls-1" d="M225.13,56.69a28.73,28.73,0,0,1,7.7-5.11,17.9,17.9,0,0,1,6.92-1.5,6.55,6.55,0,0,1,3.25.85,8.37,8.37,0,0,1,2.66,2.32,11.52,11.52,0,0,1,1.77,3.46,13.35,13.35,0,0,1,.65,4.24v25.8h-5.73V62.18a9.41,9.41,0,0,0-.47-3.15,6.3,6.3,0,0,0-1.34-2.27,5.69,5.69,0,0,0-2-1.39,7.15,7.15,0,0,0-2.6-.47,9.4,9.4,0,0,0-2.62.39,15.43,15.43,0,0,0-2.75,1.07A22.12,22.12,0,0,0,227.76,58a24.8,24.8,0,0,0-2.63,2.11V86.75h-5.77V34.26L224,32.4h1.09Z"/><path class="cls-1" d="M276.67,87.52a16,16,0,0,1-6.6-1.37,17.12,17.12,0,0,1-5.37-3.72,17.64,17.64,0,0,1-5-12.31,25.65,25.65,0,0,1,1.21-8,19.08,19.08,0,0,1,3.45-6.34,15.61,15.61,0,0,1,12.32-5.7,15.15,15.15,0,0,1,6.19,1.25,15.54,15.54,0,0,1,4.85,3.34A15.19,15.19,0,0,1,292,65.23H265.21a21.92,21.92,0,0,0,1,6.72A16.87,16.87,0,0,0,269,77.29a12.93,12.93,0,0,0,4.22,3.52,11.6,11.6,0,0,0,5.39,1.26,15.49,15.49,0,0,0,4.73-.72,16.81,16.81,0,0,0,4.08-1.89,13.2,13.2,0,0,0,3.06-2.71,9.32,9.32,0,0,0,1.74-3.15l.88.42a18.23,18.23,0,0,1-2.48,5.26,20.93,20.93,0,0,1-3.88,4.29,18.25,18.25,0,0,1-4.8,2.9A13.82,13.82,0,0,1,276.67,87.52Zm7.1-25.17h.7a9.29,9.29,0,0,0-2.9-6.84,10,10,0,0,0-3.18-2,10.37,10.37,0,0,0-3.9-.74,8.09,8.09,0,0,0-3.36.72,9.61,9.61,0,0,0-2.87,2,10.82,10.82,0,0,0-3,6.84Z"/><path class="cls-1" d="M133.12,154.91a14.66,14.66,0,0,0,3.67-.47A11.05,11.05,0,0,0,140,153a7.73,7.73,0,0,0,2.3-2.29,5.6,5.6,0,0,0,.88-3.14,6.38,6.38,0,0,0-1-3.52,12.35,12.35,0,0,0-2.71-2.93,26.64,26.64,0,0,0-3.88-2.57c-1.47-.81-3-1.61-4.52-2.41s-3.26-1.71-4.87-2.62a24.23,24.23,0,0,1-4.32-3.06,14.29,14.29,0,0,1-3.1-3.86,10.46,10.46,0,0,1-1.17-5,12.88,12.88,0,0,1,.94-5,11,11,0,0,1,2.8-4,13.23,13.23,0,0,1,4.55-2.62,18.76,18.76,0,0,1,6.19-1,20.9,20.9,0,0,1,5.61.7,13.48,13.48,0,0,1,4.36,2.1,13.27,13.27,0,0,1,3.21,3.42A20,20,0,0,1,147.5,120l-2.81,1.3a16.18,16.18,0,0,0-1.78-3.75,11.7,11.7,0,0,0-2.69-2.92,12.11,12.11,0,0,0-3.69-1.88,16,16,0,0,0-4.78-.67,12.93,12.93,0,0,0-4.19.62,9.14,9.14,0,0,0-3,1.62,6.94,6.94,0,0,0-1.77,2.25,5.81,5.81,0,0,0-.6,2.55,5,5,0,0,0,1,3,13.36,13.36,0,0,0,2.74,2.73,33.14,33.14,0,0,0,3.89,2.51q2.18,1.22,4.46,2.41,2.53,1.31,5.06,2.76A28.9,28.9,0,0,1,144,135.8a16.69,16.69,0,0,1,3.33,3.91,9.05,9.05,0,0,1,1.28,4.76,13.42,13.42,0,0,1-1,5.22,11.78,11.78,0,0,1-3,4.25,14.54,14.54,0,0,1-5,2.87,21.17,21.17,0,0,1-7,1.05,20.09,20.09,0,0,1-5.7-.74,14.23,14.23,0,0,1-4.48-2.16,14,14,0,0,1-3.34-3.48,20.76,20.76,0,0,1-2.34-4.69l3-1.23a13,13,0,0,0,8.86,8.72A16.12,16.12,0,0,0,133.12,154.91Z"/><path class="cls-1" d="M176.78,157.55a18.19,18.19,0,0,1-13.13-5.36,17.87,17.87,0,0,1-3.81-5.81,18.31,18.31,0,0,1-1.37-7.11,20.24,20.24,0,0,1,1.37-7.48,18.69,18.69,0,0,1,3.81-6.09,17.71,17.71,0,0,1,13.13-5.59,18.88,18.88,0,0,1,7.28,1.37,17.67,17.67,0,0,1,5.78,3.76,17.19,17.19,0,0,1,3.82,5.61,17.45,17.45,0,0,1,1.37,6.9,21.58,21.58,0,0,1-1.37,7.69,19.72,19.72,0,0,1-3.82,6.29,18.06,18.06,0,0,1-5.78,4.25A17,17,0,0,1,176.78,157.55Zm1.37-2.64a8.11,8.11,0,0,0,4.14-1.09,10.79,10.79,0,0,0,3.25-2.94,14.1,14.1,0,0,0,2.12-4.27,16.89,16.89,0,0,0,.76-5.13,36.06,36.06,0,0,0-.7-7.31,17.55,17.55,0,0,0-2.31-5.94,11.63,11.63,0,0,0-4.14-4,12.31,12.31,0,0,0-6.24-1.46,7.47,7.47,0,0,0-3.75,1,11.11,11.11,0,0,0-3.2,2.83,14.63,14.63,0,0,0-2.21,4.21A15.64,15.64,0,0,0,165,136a29.5,29.5,0,0,0,.88,7.38,20.31,20.31,0,0,0,2.55,6,12.94,12.94,0,0,0,4.11,4.06A10.53,10.53,0,0,0,178.15,154.91Z"/><path class="cls-1" d="M212.36,120.77V146.4a5,5,0,0,0,.69,2.53,6.86,6.86,0,0,0,1.84,2.08,9.35,9.35,0,0,0,2.73,1.39,10.75,10.75,0,0,0,3.36.51,5.86,5.86,0,0,0,2.44-.57,12,12,0,0,0,2.46-1.51,18.15,18.15,0,0,0,2.32-2.18,23.23,23.23,0,0,0,2-2.53V120.77h5.69v36h-5.69v-6.32a21.33,21.33,0,0,1-6.47,5.32,16.5,16.5,0,0,1-3.32,1.34,12.15,12.15,0,0,1-3.12.44,10,10,0,0,1-4.14-.88,11,11,0,0,1-3.4-2.39,11.34,11.34,0,0,1-3.14-7.88V120.77Z"/><path class="cls-1" d="M254.58,120.11h.15l.94,7.34a28.34,28.34,0,0,1,2.83-3,23.72,23.72,0,0,1,3.06-2.32,14.61,14.61,0,0,1,3.2-1.53,10.21,10.21,0,0,1,3.22-.54,9.73,9.73,0,0,1,5.38,1.61l-2,5.21a12.14,12.14,0,0,0-1.62-.87,8.68,8.68,0,0,0-1.37-.44,7.81,7.81,0,0,0-1.41-.15l-1.68,0a7.85,7.85,0,0,0-3,.61,11.7,11.7,0,0,0-2.74,1.62,13.8,13.8,0,0,0-2.25,2.27,15.25,15.25,0,0,0-1.62,2.57v24.25h-5.73V121.9Z"/><path class="cls-1" d="M303.45,130.27a16.85,16.85,0,0,0-1.05-2.64,9.55,9.55,0,0,0-1.74-2.41,8.39,8.39,0,0,0-6.21-2.44,10.76,10.76,0,0,0-4.66,1,10.45,10.45,0,0,0-3.48,2.67,12.08,12.08,0,0,0-2.18,3.94,15,15,0,0,0-.75,4.78,21.74,21.74,0,0,0,.95,6.52,17.59,17.59,0,0,0,2.67,5.4,13,13,0,0,0,4.16,3.67,11,11,0,0,0,5.44,1.36,12.73,12.73,0,0,0,4.65-.76,10.62,10.62,0,0,0,3.38-2.05,12.53,12.53,0,0,0,2.41-3,27.35,27.35,0,0,0,1.72-3.62l1,.42a27.59,27.59,0,0,1-2.44,6.14,17.74,17.74,0,0,1-3.5,4.53,14.14,14.14,0,0,1-4.5,2.83,14.54,14.54,0,0,1-5.41,1,14.9,14.9,0,0,1-6.35-1.39,16.25,16.25,0,0,1-5.18-3.82,17.81,17.81,0,0,1-3.48-5.66,18.66,18.66,0,0,1-1.27-6.92,20.78,20.78,0,0,1,1.41-7.67,19.8,19.8,0,0,1,3.85-6.24,18.34,18.34,0,0,1,5.71-4.2,16.09,16.09,0,0,1,7-1.54,15,15,0,0,1,3.87.49,13.55,13.55,0,0,1,3.43,1.42,12.09,12.09,0,0,1,2.77,2.25,10.91,10.91,0,0,1,1.95,3Z"/><path class="cls-1" d="M335.73,157.55a16.09,16.09,0,0,1-6.6-1.37,17.23,17.23,0,0,1-9-9.27,17.29,17.29,0,0,1-1.34-6.77,25.3,25.3,0,0,1,1.21-8,19.13,19.13,0,0,1,3.45-6.35,15.64,15.64,0,0,1,12.32-5.69,15.14,15.14,0,0,1,6.19,1.24,15.71,15.71,0,0,1,4.85,3.34,15.24,15.24,0,0,1,4.29,10.57H324.26a21.9,21.9,0,0,0,1,6.71,16.42,16.42,0,0,0,2.76,5.35,12.78,12.78,0,0,0,4.22,3.51,11.46,11.46,0,0,0,5.39,1.27,15.53,15.53,0,0,0,4.73-.72,17,17,0,0,0,4.08-1.9,13.2,13.2,0,0,0,3.06-2.71,9.32,9.32,0,0,0,1.74-3.15l.88.43a18.3,18.3,0,0,1-2.48,5.25,20.7,20.7,0,0,1-3.89,4.29,18,18,0,0,1-4.79,2.9A13.64,13.64,0,0,1,335.73,157.55Zm7.1-25.18h.7a9.29,9.29,0,0,0-2.9-6.83,9.87,9.87,0,0,0-3.18-2,10.18,10.18,0,0,0-3.9-.74,8.05,8.05,0,0,0-3.36.72,9.58,9.58,0,0,0-2.87,2,10.82,10.82,0,0,0-3,6.84Z"/><path class="cls-1" d="M40.73,202a11.18,11.18,0,0,1-.19,2.08,4.65,4.65,0,0,1-.73,1.84,3.94,3.94,0,0,1-1.58,1.33,6.2,6.2,0,0,1-2.72.51,7.55,7.55,0,0,1-1.72-.19,7.3,7.3,0,0,1-1.41-.48,7.11,7.11,0,0,1-1.15-.68c-.35-.26-.67-.51-1-.76l.9-1.21.11.14.77.63a7.65,7.65,0,0,0,.93.64,5.41,5.41,0,0,0,1,.49,3.25,3.25,0,0,0,1.11.2,3.21,3.21,0,0,0,2.18-.67,2.31,2.31,0,0,0,.77-1.82V188.12h2.68Z"/><path class="cls-1" d="M61,188.12v1.26H50.8v6.94h6.86v1.26H50.8v8.7H61v1.26H48.12V188.12Z"/><path class="cls-1" d="M67.35,188.12l6,15,5-13,5.41,13,5.72-15h1.65L83.6,207.7h-.72l-5-12.35L73.2,207.7h-.84l-7.71-19.58Z"/><path class="cls-1" d="M108.78,188.12v1.26H98.54v6.94h6.86v1.26H98.54v8.7h10.24v1.26H95.86V188.12Z"/><path class="cls-1" d="M115,188.12h2.68v18.16h9.79v1.26H115Z"/><path class="cls-1" d="M132.83,188.12h6.45a10.33,10.33,0,0,1,2.93.37,6,6,0,0,1,2.11,1,4.34,4.34,0,0,1,1.27,1.6,4.89,4.89,0,0,1,.42,2,4.43,4.43,0,0,1-.33,1.72,4.65,4.65,0,0,1-.94,1.44,5.74,5.74,0,0,1-1.48,1.09,8,8,0,0,1-1.93.7l7.07,9.42h-3.32l-6.76-9.13h-2.81v9.13h-2.68Zm2.68,9.31h2.18a7.76,7.76,0,0,0,2.15-.29,5.45,5.45,0,0,0,1.71-.83,4,4,0,0,0,1.12-1.29,3.61,3.61,0,0,0,.4-1.72,4.06,4.06,0,0,0-.32-1.61,3.67,3.67,0,0,0-.91-1.25,4.37,4.37,0,0,0-1.39-.82,5.32,5.32,0,0,0-1.78-.29h-3.16Z"/><path class="cls-1" d="M152.22,188.12l6.87,10,6.83-10h1.73l-7.78,11.45v8h-2.68v-8.09l-7.81-11.33Z"/><path class="cls-1" d="M199.49,188.12v1.26H190v6.94h6.86v1.26H190v10h-2.68V188.12Z"/><path class="cls-1" d="M214.26,208a10.32,10.32,0,0,1-7.4-3,10.17,10.17,0,0,1-2.21-3.26,10,10,0,0,1-.81-4,9.6,9.6,0,0,1,.81-3.93,9.76,9.76,0,0,1,2.21-3.19,10.4,10.4,0,0,1,3.3-2.15,11.17,11.17,0,0,1,8.2,0,10.34,10.34,0,0,1,3.31,2.15,9.92,9.92,0,0,1,2.21,3.19,9.6,9.6,0,0,1,.81,3.93,10,10,0,0,1-.81,4,10.35,10.35,0,0,1-9.62,6.27Zm0-1a6.51,6.51,0,0,0,3.08-.7,6.44,6.44,0,0,0,2.25-1.94,9.29,9.29,0,0,0,1.38-2.94,14.15,14.15,0,0,0,.46-3.72,13.68,13.68,0,0,0-.46-3.68,9,9,0,0,0-1.38-2.88,6.24,6.24,0,0,0-2.25-1.87,6.74,6.74,0,0,0-3.08-.67,6.84,6.84,0,0,0-3.11.67,6.08,6.08,0,0,0-2.25,1.87,8.73,8.73,0,0,0-1.36,2.88,13.68,13.68,0,0,0-.46,3.68,14.15,14.15,0,0,0,.46,3.72,9.05,9.05,0,0,0,1.36,2.94,6.27,6.27,0,0,0,2.25,1.94A6.6,6.6,0,0,0,214.26,207Z"/><path class="cls-1" d="M231.5,188.12h6.44a10.4,10.4,0,0,1,2.94.37,6.14,6.14,0,0,1,2.11,1,4.44,4.44,0,0,1,1.27,1.6,4.89,4.89,0,0,1,.42,2,4.43,4.43,0,0,1-.33,1.72,4.65,4.65,0,0,1-.94,1.44,5.91,5.91,0,0,1-1.48,1.09,7.94,7.94,0,0,1-1.94.7l7.08,9.42h-3.33L237,198.41h-2.81v9.13H231.5Zm2.68,9.31h2.18a7.76,7.76,0,0,0,2.15-.29,5.5,5.5,0,0,0,1.7-.83,3.83,3.83,0,0,0,1.12-1.29,3.61,3.61,0,0,0,.41-1.72,3.9,3.9,0,0,0-.33-1.61,3.51,3.51,0,0,0-.9-1.25,4.42,4.42,0,0,0-1.4-.82,5.21,5.21,0,0,0-1.77-.29h-3.16Z"/><path class="cls-1" d="M267.09,188.12h2.68v18.16h9.79v1.26H267.09Z"/><path class="cls-1" d="M294.44,208a10.33,10.33,0,0,1-9.61-6.27,10,10,0,0,1-.81-4,9.6,9.6,0,0,1,.81-3.93,9.92,9.92,0,0,1,2.21-3.19,10.4,10.4,0,0,1,3.3-2.15,11.17,11.17,0,0,1,8.2,0,10.34,10.34,0,0,1,3.31,2.15,9.92,9.92,0,0,1,2.21,3.19,9.6,9.6,0,0,1,.81,3.93,10,10,0,0,1-.81,4,10.35,10.35,0,0,1-9.62,6.27Zm0-1a6.51,6.51,0,0,0,3.08-.7,6.44,6.44,0,0,0,2.25-1.94,9.08,9.08,0,0,0,1.38-2.94,14.14,14.14,0,0,0,.47-3.72,13.67,13.67,0,0,0-.47-3.68,8.75,8.75,0,0,0-1.38-2.88,6.24,6.24,0,0,0-2.25-1.87,6.74,6.74,0,0,0-3.08-.67,6.87,6.87,0,0,0-3.11.67,6.08,6.08,0,0,0-2.25,1.87,8.73,8.73,0,0,0-1.36,2.88,13.68,13.68,0,0,0-.46,3.68,14.15,14.15,0,0,0,.46,3.72,9.05,9.05,0,0,0,1.36,2.94,6.27,6.27,0,0,0,2.25,1.94A6.63,6.63,0,0,0,294.44,207Z"/><path class="cls-1" d="M311.39,188.12H313l13.09,14.59V188.12h1.44v19.82h-.73l-13.94-16v15.59h-1.47Z"/><path class="cls-1" d="M345.68,189.07a9,9,0,0,0-3.37.62,7.49,7.49,0,0,0-2.65,1.79,8,8,0,0,0-1.74,2.81,10.26,10.26,0,0,0-.62,3.68,9.64,9.64,0,0,0,.67,3.7,8,8,0,0,0,4.62,4.59,9.31,9.31,0,0,0,3.41.62,7,7,0,0,0,1.31-.12,9.9,9.9,0,0,0,2.25-.74c.33-.16.62-.32.88-.47v-6.81h-3.68v-1.16h6.36v8.63a17.43,17.43,0,0,1-1.65.77,12.53,12.53,0,0,1-1.79.55,17.39,17.39,0,0,1-2.14.35,26,26,0,0,1-2.64.11,12.33,12.33,0,0,1-3-.35,11.32,11.32,0,0,1-2.62-1,10.41,10.41,0,0,1-2.17-1.58,9.77,9.77,0,0,1-1.66-2,9.29,9.29,0,0,1-1.05-2.39,9.42,9.42,0,0,1-.37-2.65,10.25,10.25,0,0,1,.35-2.65,11,11,0,0,1,1-2.45,9.89,9.89,0,0,1,1.6-2.1,10.07,10.07,0,0,1,2.13-1.64,10.32,10.32,0,0,1,2.57-1.07,11.09,11.09,0,0,1,3-.38,8.87,8.87,0,0,1,2.73.41,9.4,9.4,0,0,1,2.32,1.12,10.33,10.33,0,0,1,1.88,1.61,12,12,0,0,1,1.43,1.9l-1.24.83a9.24,9.24,0,0,0-1.35-2,8.87,8.87,0,0,0-1.59-1.4,6.72,6.72,0,0,0-1.65-.83A4.65,4.65,0,0,0,345.68,189.07Z"/><path class="cls-1" d="M373.43,188.12v1.26H363.19v6.94h6.86v1.26h-6.86v8.7h10.24v1.26H360.51V188.12Z"/><path class="cls-1" d="M380,188.12l7.54,15.6,6.9-15.6H396L387.17,208l-.61,0-9.48-19.87Z"/><path class="cls-1" d="M400.78,188.12h2.68v19.42h-2.68Z"/><path class="cls-1" d="M425.84,188.12v1.26h-7v18.16h-2.68V189.38h-7v-1.26Z"/><path class="cls-1" d="M431.64,188.12l6.87,10,6.83-10h1.73l-7.78,11.45v8h-2.68v-8.09l-7.81-11.33Z"/></svg>
