<svg id="Layer_1" data-name="Layer 1" xmlns="http://www.w3.org/2000/svg" width="171.81mm" height="91.81mm" viewBox="0 0 487.01 260.26"><defs><style>.cls-1{fill:#fff;}</style></defs><path class="cls-1" d="M208.32,38v3H191.44V84.61H185V41H168.14V38Z"/><path class="cls-1" d="M223.16,54.56a28.76,28.76,0,0,1,7.69-5.12A17.93,17.93,0,0,1,237.78,48a6.64,6.64,0,0,1,3.25.84,8.5,8.5,0,0,1,2.66,2.32,11.64,11.64,0,0,1,1.77,3.46,13.4,13.4,0,0,1,.65,4.24v25.8h-5.73V60a9.75,9.75,0,0,0-.47-3.15,6.26,6.26,0,0,0-1.34-2.26,5.53,5.53,0,0,0-2.06-1.39,6.87,6.87,0,0,0-2.6-.48,9.51,9.51,0,0,0-2.62.39,17.39,17.39,0,0,0-2.74,1.07,22.22,22.22,0,0,0-2.76,1.64A23.6,23.6,0,0,0,223.16,58V84.61h-5.77V32.13l4.68-1.87h1.09Z"/><path class="cls-1" d="M274.69,85.39A16.07,16.07,0,0,1,268.1,84a17.23,17.23,0,0,1-9-9.27A17.1,17.1,0,0,1,257.75,68,25.32,25.32,0,0,1,259,60a19.13,19.13,0,0,1,3.45-6.35,16,16,0,0,1,5.36-4.18,15.75,15.75,0,0,1,7-1.51,15.14,15.14,0,0,1,6.19,1.24,15.71,15.71,0,0,1,4.85,3.34,15.24,15.24,0,0,1,4.29,10.57H263.23a21.9,21.9,0,0,0,1,6.71A16.42,16.42,0,0,0,267,75.16a12.78,12.78,0,0,0,4.22,3.51,11.46,11.46,0,0,0,5.39,1.27,15.53,15.53,0,0,0,4.73-.72,16.63,16.63,0,0,0,4.08-1.9,13.2,13.2,0,0,0,3.06-2.71,9.38,9.38,0,0,0,1.74-3.14l.88.42a18.18,18.18,0,0,1-2.48,5.25,20.7,20.7,0,0,1-3.89,4.29,18,18,0,0,1-4.79,2.9A13.65,13.65,0,0,1,274.69,85.39Zm7.11-25.17h.7a9.29,9.29,0,0,0-2.9-6.84,9.87,9.87,0,0,0-3.18-2,10.19,10.19,0,0,0-3.91-.74,8,8,0,0,0-3.35.72,9.58,9.58,0,0,0-2.87,2,10.82,10.82,0,0,0-3,6.84Z"/><path class="cls-1" d="M131.15,152.77a14.27,14.27,0,0,0,3.67-.47,10.79,10.79,0,0,0,3.24-1.41,7.81,7.81,0,0,0,2.3-2.28,5.69,5.69,0,0,0,.88-3.15,6.32,6.32,0,0,0-1-3.51,12.2,12.2,0,0,0-2.71-2.94,27.48,27.48,0,0,0-3.88-2.57c-1.47-.8-3-1.61-4.52-2.4s-3.27-1.72-4.87-2.62a23.87,23.87,0,0,1-4.32-3.06,14.48,14.48,0,0,1-3.1-3.87,10.42,10.42,0,0,1-1.18-5,12.85,12.85,0,0,1,1-5,11.14,11.14,0,0,1,2.8-4,13.22,13.22,0,0,1,4.55-2.61,18.5,18.5,0,0,1,6.19-1,20.6,20.6,0,0,1,5.61.7,13.67,13.67,0,0,1,4.36,2.09,13.32,13.32,0,0,1,3.21,3.43,20.12,20.12,0,0,1,2.22,4.71l-2.82,1.3a15.51,15.51,0,0,0-1.77-3.74,11.72,11.72,0,0,0-2.69-2.92,11.89,11.89,0,0,0-3.69-1.88,15.68,15.68,0,0,0-4.78-.67,13.22,13.22,0,0,0-4.19.61,9.34,9.34,0,0,0-3,1.62,6.94,6.94,0,0,0-1.77,2.25,5.81,5.81,0,0,0-.6,2.55,5,5,0,0,0,1,3,13.33,13.33,0,0,0,2.74,2.72,32.55,32.55,0,0,0,3.88,2.52c1.46.8,2.94,1.61,4.47,2.4,1.69.87,3.37,1.79,5.06,2.76a28.94,28.94,0,0,1,4.57,3.24,16.17,16.17,0,0,1,3.32,3.9,9,9,0,0,1,1.29,4.76,13.35,13.35,0,0,1-1,5.22,11.81,11.81,0,0,1-3,4.26,14.34,14.34,0,0,1-5,2.86,20.84,20.84,0,0,1-7,1.06,20.45,20.45,0,0,1-5.7-.74,14.23,14.23,0,0,1-4.48-2.16,13.83,13.83,0,0,1-3.34-3.48,20.83,20.83,0,0,1-2.34-4.7l3-1.23a13,13,0,0,0,8.86,8.72A16.12,16.12,0,0,0,131.15,152.77Z"/><path class="cls-1" d="M174.81,155.41a18.4,18.4,0,0,1-7.33-1.44,18.06,18.06,0,0,1-5.8-3.92,17.82,17.82,0,0,1-3.81-5.8,18.39,18.39,0,0,1-1.37-7.12,20.15,20.15,0,0,1,1.37-7.47,18.74,18.74,0,0,1,3.81-6.1A17.71,17.71,0,0,1,174.81,118a19.06,19.06,0,0,1,7.28,1.37,18,18,0,0,1,5.78,3.76,17.32,17.32,0,0,1,5.19,12.52,21.48,21.48,0,0,1-1.37,7.68,19.72,19.72,0,0,1-3.82,6.29,18.09,18.09,0,0,1-5.78,4.26A17,17,0,0,1,174.81,155.41Zm1.37-2.64a8.14,8.14,0,0,0,4.13-1.08,10.83,10.83,0,0,0,3.26-2.94,14.1,14.1,0,0,0,2.12-4.27,17,17,0,0,0,.76-5.13,36.9,36.9,0,0,0-.7-7.32,17.72,17.72,0,0,0-2.31-5.94,11.66,11.66,0,0,0-4.15-4,12.41,12.41,0,0,0-6.24-1.46,7.45,7.45,0,0,0-3.74,1,10.82,10.82,0,0,0-3.2,2.83,14.33,14.33,0,0,0-2.21,4.2,15.7,15.7,0,0,0-.83,5.12,29.62,29.62,0,0,0,.88,7.38,19.64,19.64,0,0,0,2.55,6,12.94,12.94,0,0,0,4.11,4.06A10.44,10.44,0,0,0,176.18,152.77Z"/><path class="cls-1" d="M210.39,118.64v25.63a5,5,0,0,0,.69,2.53,6.71,6.71,0,0,0,1.84,2.07,9,9,0,0,0,2.73,1.39,10.73,10.73,0,0,0,3.35.51,6,6,0,0,0,2.45-.56,12.46,12.46,0,0,0,2.46-1.51,18.89,18.89,0,0,0,2.32-2.18,22.86,22.86,0,0,0,2-2.53V118.64h5.7v36h-5.7v-6.33a20.82,20.82,0,0,1-3.12,3.11,22.49,22.49,0,0,1-3.34,2.22,16.28,16.28,0,0,1-3.33,1.33,11.66,11.66,0,0,1-3.11.44,9.88,9.88,0,0,1-4.15-.88,10.8,10.8,0,0,1-3.39-2.39,11.41,11.41,0,0,1-3.15-7.87V118.64Z"/><path class="cls-1" d="M252.61,118h.14l.95,7.35a28.46,28.46,0,0,1,2.83-3,23.72,23.72,0,0,1,3.06-2.32,14.81,14.81,0,0,1,3.2-1.52A10,10,0,0,1,266,118a10.08,10.08,0,0,1,2.77.4,9.84,9.84,0,0,1,2.61,1.22l-2,5.2a13.19,13.19,0,0,0-1.62-.86,7.23,7.23,0,0,0-1.37-.44,8,8,0,0,0-1.41-.16l-1.68,0a7.82,7.82,0,0,0-3,.62,11.5,11.5,0,0,0-2.74,1.62,13,13,0,0,0-2.25,2.26,14.43,14.43,0,0,0-1.62,2.57v24.26H248V119.76Z"/><path class="cls-1" d="M301.48,128.13a16.85,16.85,0,0,0-1.05-2.64,9.13,9.13,0,0,0-1.75-2.4,8.34,8.34,0,0,0-2.6-1.76,8.69,8.69,0,0,0-3.6-.69,10.62,10.62,0,0,0-4.66,1,10.19,10.19,0,0,0-3.48,2.67,12,12,0,0,0-2.18,3.94,15,15,0,0,0-.75,4.78,22.11,22.11,0,0,0,.94,6.52,18,18,0,0,0,2.68,5.4,13,13,0,0,0,4.16,3.67,11,11,0,0,0,5.43,1.35,13,13,0,0,0,4.66-.75,10.76,10.76,0,0,0,3.38-2.06,12.67,12.67,0,0,0,2.41-3,28,28,0,0,0,1.72-3.62l1,.42a27.51,27.51,0,0,1-2.44,6.13,18,18,0,0,1-3.5,4.54,14.32,14.32,0,0,1-4.5,2.83,15.3,15.3,0,0,1-11.76-.41,16.08,16.08,0,0,1-5.18-3.81,17.92,17.92,0,0,1-3.48-5.66,18.75,18.75,0,0,1-1.27-6.93,20.73,20.73,0,0,1,1.41-7.66,19.62,19.62,0,0,1,3.85-6.24,18.22,18.22,0,0,1,5.71-4.2,16.09,16.09,0,0,1,7-1.55,15,15,0,0,1,3.87.49,13.35,13.35,0,0,1,3.42,1.43,12.14,12.14,0,0,1,2.78,2.25,10.91,10.91,0,0,1,1.95,3Z"/><path class="cls-1" d="M333.75,155.41a16.07,16.07,0,0,1-6.59-1.37,17.31,17.31,0,0,1-5.38-3.73,17.61,17.61,0,0,1-3.64-5.53,17.32,17.32,0,0,1-1.33-6.77,25.36,25.36,0,0,1,1.21-8,19.08,19.08,0,0,1,3.45-6.34,15.61,15.61,0,0,1,12.32-5.7,15.15,15.15,0,0,1,6.19,1.25,15.38,15.38,0,0,1,4.85,3.34,15.19,15.19,0,0,1,4.29,10.56H322.29a21.92,21.92,0,0,0,1,6.72,16.47,16.47,0,0,0,2.76,5.34,12.93,12.93,0,0,0,4.22,3.52,11.54,11.54,0,0,0,5.39,1.26,15.53,15.53,0,0,0,4.73-.72,16.63,16.63,0,0,0,4.08-1.9,13.14,13.14,0,0,0,3.06-2.7,9.32,9.32,0,0,0,1.74-3.15l.88.42a18.23,18.23,0,0,1-2.48,5.26,21,21,0,0,1-3.89,4.29,18.2,18.2,0,0,1-4.8,2.9A13.74,13.74,0,0,1,333.75,155.41Zm7.1-25.17h.71a9.39,9.39,0,0,0-2.9-6.84,10.15,10.15,0,0,0-3.18-2,10.38,10.38,0,0,0-3.91-.74,8,8,0,0,0-3.35.72,9.32,9.32,0,0,0-2.87,2,10.82,10.82,0,0,0-3,6.83Z"/><path class="cls-1" d="M38.75,199.85a11.92,11.92,0,0,1-.18,2.08,4.85,4.85,0,0,1-.73,1.85,3.91,3.91,0,0,1-1.58,1.32,6.2,6.2,0,0,1-2.72.51,7.51,7.51,0,0,1-1.72-.18,7.31,7.31,0,0,1-1.41-.49,6.93,6.93,0,0,1-1.16-.68c-.34-.25-.67-.51-1-.76l.89-1.2.12.13c.23.2.48.41.77.64a10,10,0,0,0,.92.64,7.09,7.09,0,0,0,1,.49,3.24,3.24,0,0,0,1.11.19,3.18,3.18,0,0,0,2.18-.67,2.29,2.29,0,0,0,.76-1.82V186h2.68Z"/><path class="cls-1" d="M59.07,186v1.26H48.83v6.94h6.86v1.26H48.83v8.7H59.07v1.26H46.15V186Z"/><path class="cls-1" d="M65.38,186l6,15,5-13,5.41,13,5.72-15h1.64l-7.48,19.59h-.72l-5-12.35-4.71,12.35h-.84L62.67,186Z"/><path class="cls-1" d="M106.81,186v1.26H96.57v6.94h6.85v1.26H96.57v8.7h10.24v1.26H93.89V186Z"/><path class="cls-1" d="M113.06,186h2.68v18.16h9.79v1.26H113.06Z"/><path class="cls-1" d="M130.86,186h6.44a10.73,10.73,0,0,1,2.94.37,6,6,0,0,1,2.11,1.05,4.48,4.48,0,0,1,1.27,1.61,4.84,4.84,0,0,1,.42,2,4.45,4.45,0,0,1-1.27,3.16,5.68,5.68,0,0,1-1.48,1.09,8,8,0,0,1-1.94.71l7.08,9.41H143.1l-6.75-9.12h-2.81v9.12h-2.68Zm2.68,9.32h2.18a7.4,7.4,0,0,0,2.15-.3,5.27,5.27,0,0,0,1.7-.82,3.76,3.76,0,0,0,1.12-1.3,3.6,3.6,0,0,0,.41-1.71,3.83,3.83,0,0,0-.33-1.61,3.55,3.55,0,0,0-.9-1.26,4.48,4.48,0,0,0-1.4-.81,5,5,0,0,0-1.77-.29h-3.16Z"/><path class="cls-1" d="M150.25,186,157.12,196,164,186h1.73l-7.78,11.46v8h-2.68v-8.08L147.41,186Z"/><path class="cls-1" d="M197.52,186v1.26H188v6.94h6.86v1.26H188v10h-2.68V186Z"/><path class="cls-1" d="M212.28,205.86a10.43,10.43,0,0,1-7.39-3,10.1,10.1,0,0,1-2.21-3.27,9.88,9.88,0,0,1-.81-4,9.63,9.63,0,0,1,.81-3.93,9.87,9.87,0,0,1,2.21-3.19,10.46,10.46,0,0,1,3.3-2.15,11.17,11.17,0,0,1,8.2,0,10.51,10.51,0,0,1,3.31,2.15,10.19,10.19,0,0,1,2.21,3.19,9.63,9.63,0,0,1,.8,3.93,9.88,9.88,0,0,1-.8,4,10.43,10.43,0,0,1-2.21,3.27,10.48,10.48,0,0,1-7.42,3Zm0-1a6.67,6.67,0,0,0,3.09-.69,6.54,6.54,0,0,0,2.25-1.94,9.12,9.12,0,0,0,1.37-2.95,13.63,13.63,0,0,0,.47-3.72,13.33,13.33,0,0,0-.47-3.68,8.59,8.59,0,0,0-1.37-2.87,6.27,6.27,0,0,0-2.25-1.88,7.48,7.48,0,0,0-6.19,0,6.11,6.11,0,0,0-2.25,1.88,8.58,8.58,0,0,0-1.36,2.87,13.73,13.73,0,0,0-.46,3.68,14,14,0,0,0,.46,3.72,9.11,9.11,0,0,0,1.36,2.95,6.37,6.37,0,0,0,2.25,1.94A6.71,6.71,0,0,0,212.28,204.89Z"/><path class="cls-1" d="M229.52,186H236a10.83,10.83,0,0,1,2.94.37A6.23,6.23,0,0,1,241,187.4a4.34,4.34,0,0,1,1.26,1.61,4.69,4.69,0,0,1,.43,2,4.4,4.4,0,0,1-1.28,3.16,5.52,5.52,0,0,1-1.48,1.09A7.87,7.87,0,0,1,238,196l7.08,9.41h-3.33L235,196.28h-2.81v9.12h-2.69Zm2.69,9.32h2.18a7.33,7.33,0,0,0,2.14-.3,5.43,5.43,0,0,0,1.71-.82,3.87,3.87,0,0,0,1.12-1.3,3.59,3.59,0,0,0,.4-1.71,3.83,3.83,0,0,0-.32-1.61,3.58,3.58,0,0,0-.91-1.26,4.42,4.42,0,0,0-1.39-.81,5.06,5.06,0,0,0-1.77-.29h-3.16Z"/><path class="cls-1" d="M265.12,186h2.68v18.16h9.78v1.26H265.12Z"/><path class="cls-1" d="M292.47,205.86a10.43,10.43,0,0,1-7.4-3,10.1,10.1,0,0,1-2.21-3.27,9.88,9.88,0,0,1-.81-4,9.63,9.63,0,0,1,.81-3.93,9.87,9.87,0,0,1,2.21-3.19,10.58,10.58,0,0,1,3.3-2.15,11.17,11.17,0,0,1,8.2,0,10.51,10.51,0,0,1,3.31,2.15,10,10,0,0,1,2.21,3.19,9.63,9.63,0,0,1,.81,3.93,9.88,9.88,0,0,1-.81,4,10.22,10.22,0,0,1-5.52,5.47A10.38,10.38,0,0,1,292.47,205.86Zm0-1a6.62,6.62,0,0,0,3.08-.69,6.54,6.54,0,0,0,2.25-1.94,9.35,9.35,0,0,0,1.38-2.95,14,14,0,0,0,.46-3.72,13.73,13.73,0,0,0-.46-3.68A8.8,8.8,0,0,0,297.8,189a6.27,6.27,0,0,0-2.25-1.88,6.88,6.88,0,0,0-3.08-.67,7,7,0,0,0-3.11.67,6.11,6.11,0,0,0-2.25,1.88,8.58,8.58,0,0,0-1.36,2.87,13.73,13.73,0,0,0-.46,3.68,14,14,0,0,0,.46,3.72,9.11,9.11,0,0,0,1.36,2.95,6.37,6.37,0,0,0,2.25,1.94A6.72,6.72,0,0,0,292.47,204.89Z"/><path class="cls-1" d="M309.41,186H311l13.1,14.59V186h1.44V205.8h-.74l-13.93-16V205.4h-1.48Z"/><path class="cls-1" d="M343.7,186.93a8.74,8.74,0,0,0-3.36.63,7.59,7.59,0,0,0-2.66,1.78,8.26,8.26,0,0,0-1.73,2.81,10.28,10.28,0,0,0-.62,3.69,9.68,9.68,0,0,0,.67,3.7,8.29,8.29,0,0,0,1.85,2.8,8.19,8.19,0,0,0,2.76,1.78,9.2,9.2,0,0,0,3.42.63,7.1,7.1,0,0,0,1.31-.13,10.51,10.51,0,0,0,1.2-.31,9.19,9.19,0,0,0,1-.43,7.93,7.93,0,0,0,.88-.47V196.6h-3.68v-1.16h6.36v8.63a17.43,17.43,0,0,1-1.65.77,12.28,12.28,0,0,1-1.8.56,17,17,0,0,1-2.13.34,26,26,0,0,1-2.64.12,12,12,0,0,1-3-.36,11.42,11.42,0,0,1-2.61-1,10.44,10.44,0,0,1-2.18-1.57,10.33,10.33,0,0,1-1.65-2,9.46,9.46,0,0,1-1.42-5,10.33,10.33,0,0,1,.35-2.66,10.69,10.69,0,0,1,1-2.45,10.42,10.42,0,0,1,1.6-2.1,10.63,10.63,0,0,1,2.12-1.64,11,11,0,0,1,2.58-1.07,11.4,11.4,0,0,1,3-.38,8.63,8.63,0,0,1,2.73.42,9.94,9.94,0,0,1,2.32,1.11,10.73,10.73,0,0,1,1.88,1.61,13.12,13.12,0,0,1,1.43,1.9l-1.24.84a9,9,0,0,0-1.35-2,8.5,8.5,0,0,0-1.59-1.4,7.15,7.15,0,0,0-1.65-.84A4.93,4.93,0,0,0,343.7,186.93Z"/><path class="cls-1" d="M371.46,186v1.26H361.22v6.94h6.86v1.26h-6.86v8.7h10.24v1.26H358.54V186Z"/><path class="cls-1" d="M378,186l7.55,15.6,6.9-15.6H394l-8.79,19.85-.61,0L375.11,186Z"/><path class="cls-1" d="M398.81,186h2.68V205.4h-2.68Z"/><path class="cls-1" d="M423.87,186v1.26h-7V205.4h-2.68V187.24h-7V186Z"/><path class="cls-1" d="M429.67,186,436.54,196,443.37,186h1.73l-7.78,11.46v8h-2.68v-8.08L426.83,186Z"/></svg>
